<?xml version="1.0" encoding="UTF-8"?>
<svg id="Capa_1" xmlns="http://www.w3.org/2000/svg" version="1.1" viewBox="0 0 417.16 174.94">
  <!-- Generator: Adobe Illustrator 30.2.1, SVG Export Plug-In . SVG Version: 2.1.1 Build 1)  -->
  <defs>
    <style>
      .st0 {
        font-size: 193px;
        letter-spacing: -.07em;
      }

      .st1 {
        font-size: 158.37px;
        letter-spacing: -.07em;
      }

      .st2 {
        fill: #ee3b70;
      }

      .st3 {
        font-size: 241px;
        letter-spacing: -.07em;
      }

      .st3, .st4 {
        fill: #2a0736;
        font-family: Bryant-MediumAlternate, Bryant;
        font-weight: 500;
      }

      .st5 {
        font-size: 134px;
        letter-spacing: -.07em;
      }

      .st6 {
        fill: #5a42d5;
      }

      .st7 {
        fill: #f5257e;
        font-family: Bryant-RegularAlternate, Bryant;
      }

      .st8 {
        fill: #feeb3c;
      }

      .st9 {
        fill: #fdfdfd;
      }
    </style>
  </defs>
  <text class="st5" transform="translate(-2647.85 155.26)"><tspan class="st4" x="0" y="0">ari</tspan><tspan class="st7" x="126.89" y="0">Care</tspan></text>
  <g>
    <path class="st9" d="M-2372.58,663.87v681h-525v-681h525ZM-2642.07,700.81c-11.05,2.05-22.84,17.32-20.96,28.96,17.95,0,35.95,0,53.9,0l-27.45,93.87-26.45-93.87c-32.59,0-65.22-.02-97.81,0-31.93.02-63.89-.02-95.82,0,39.56,44.63,94.25,77.35,152.7,90.37,14.52,3.23,28.46,4.21,42.93,6.48l-20.86,52.27c23.17,22.15,66.33,24.87,87.56-1l-20.79-51.27c43.51-5.97,77.54-13.72,116.45-34.78,22.64-12.25,60.16-38.82,75.69-59.08.77-1,1.94-1.27,1.49-3-29.26-.03-58.57.02-87.83,0-32.92-.03-65.89.01-98.81,0,.84-12.06-9.97-26.94-21.96-28.96-1.35-5.89-2.96-13.3-6.98-17.97l-5,17.97ZM-2832.71,775.71l-8-3.48-7.95-11.5c-.83,6.88-6.54,13.53-13.33,14.97l-.65,1.99,9.02,4.47,5.94,10.51c1.32-8.87,8.61-12.21,14.98-16.96ZM-2422.49,775.72c-4.19-.7-7.25-3.49-10-6.48l-4.95-8.5c-1.06,7.06-6.74,12.8-13.37,14.9l-.61,2.05c4.4.83,8.87,4.52,11.43,8.04,1.41,1.94,1.13,4.97,3.52,5.95,1.46-5.96,7.27-12.72,13.34-13.98l.65-1.98ZM-2424.49,801.66c-38.57,2.6-37.57,56.68,1,57.92l-1-57.92ZM-2484.38,820.65c-7.65-1.76-13.41-7.57-15.46-14.99-1.95,3.01-2.98,5.74-5.47,8.51-3.2,3.55-6.7,4.49-10,7.45,8,.92,12.71,8.08,15.47,15l5.09-9.9,10.38-6.08ZM-2835.07,806.73c-3.37,4.41-21.18,20.43-21.6,24.41-1.04,9.83,12.11,20.48,21.46,20.53,10.52.06,26.66-13.08,20.52-23.6-1.83-3.13-10.93-12.69-14-15.94-1.1-1.16-5.06-5.62-6.38-5.39ZM-2747.87,822.65l-9.88-4.6-6.07-10.38c-1.28,5.07-3.62,8.62-7.67,11.8-1.77,1.39-4.65,2.28-5.69,3.11-2.66,2.11,1.13,1.98,2.24,2.64,6.15,3.7,8.22,7.71,12.1,13.4.04-3.1,2.35-6.83,4.47-9.02,3.21-3.32,7.45-3.94,10.51-6.94ZM-2797.17,834.66l-20.62,22.37c-2.79,4.76,2.66,14.23,6.57,17.5,14.82,12.39,38.73.56,34.46-18.5l-20.4-21.37ZM-2703.2,840.8c-9.59.84-9.48,17.04,2.7,14.78,8.67-1.61,5.61-15.51-2.7-14.78ZM-2575.55,840.9c-9.87.54-10.07,17.15,2.81,14.66,7.93-1.54,6.01-15.14-2.81-14.66ZM-2430.48,910.51c.44-37.65-33.78-66.9-71.06-59.62-28.65,5.6-48,30.13-48.71,59.09,2.28,2.24,2.93-1.08,3.76-1.39,7.71-2.85,17.27-4.36,25.19-7.08l-14.96-18.95,22.95,3.98-3.98-23.96,18.94,15.97c1.01-.75,5.58-17.5,6.96-20.51.45-.99.61-2.34,2.02-2.46l7.01,21.97c2.28,1.67,15.36-13.22,18.94-13.98l-3.98,22.96,23.95-3.98c-3.28,6.15-10.15,10.97-13.99,16.45-.71,1.01-1.6,1.05-.51,2.55s20.1,5.74,23.73,7.04c1.05.38.79,2.92,3.75,1.92ZM-2836.02,860.69c-3.08,4.23-21.35,20.75-21.57,24.28-.64,10.34,12.43,20.61,22.28,20.43,9.53-.17,22.13-10.42,21.49-20.43-.25-3.91-17.07-18.49-19.41-23.37l-2.79-.91ZM-2723.92,897.52c-3.14-1.28-8.12-1.26-11.5-1-1.48.12-2.89-.79-2.47,1.48l23.96,23.02.99-.54,23.95-22.48c.42-2.27-.99-1.37-2.47-1.48-5.2-.4-7.87-.25-12.49,1.99.64-9.28-2.45-19.66-9.62-25.89-7.89,5.11-9.15,16.21-10.35,24.89ZM-2756.21,879.91c-3.75-3.73-9.01-5.18-14.04-6.25l-1.42,1.55.85,40.29c18.32.18,27.76-22.53,14.61-35.59ZM-2774.82,882.55c-27.37.24-27.73,40.86,0,40.94v-40.94ZM-2466.41,910.51c1.19-33.54-48.68-33.39-47.91,0h47.91ZM-2581.2,893.53l-1.98.66c-1.42,6.73-7.9,13.33-14.97,13.33l10.5,6.95,4.48,8.01c2.8.55,2.83-3.67,4.54-5.92,3.08-4.04,7.47-6.8,12.4-8.07l-9.87-5.58c-2.13-2.9-5.25-5.47-5.1-9.39ZM-2811.04,909.81c-7.88-6.35-18.08,5.34-10.22,11.71s17.35-5.96,10.22-11.71ZM-2693.97,935.47c-24.68,2.15-57.46.75-82.84,1-27.93.27-55.95-.63-83.86.51,5.9,17.42,21.43,30.55,40.15,31.24l44.7-10.78c6.11,45.16,38.54,91.05,81.84,106.84.04-19.29-.03-38.62,0-57.91l69.87-69.9c5.47-.15,11,.2,16.48,0,1.21-.04,3.71.75,3.48-.99l-27.94-11.99c-13.64-15.48-37.2-12.69-50.42,1.98-4.3,4.78-3.8,9.33-11.47,10ZM-2492.36,986.39c.49-3.25-.86-6.28-1.04-9.45-.8-14.54,4.51-27.96-9.44-38.48-12.5-9.42-27.39-5.04-41.96-6.03l-8.44,2.03c8.72.63,17.95,5.51,22.16,13.29,7.65,14.14-1.07,21.71-3.73,34.62-9.03,43.87,20.85,74.53,63.92,75.01,2.57.03,4.84-.02,4.06-3.12-1.04-4.16-10.12-15.94-12.73-21.25-3.87-7.88-7.88-17.96-8.8-26.64,42.35,1.28,70.03-31.54,65.6-73.12-.27-2.52-1.48-8.32-2.5-10.51-.47-1.01.22-1.57-1.7-1.24-21.31,22.09-43.89,43.02-65.39,64.9ZM-2550.26,983.42c-10.77-4.23-20.78-5.23-31.91-1.5,4.32-4.27,5.78-31.53,1.45-32.46-8.56,3.55-15.09,10.22-19.94,17.95-4.89-8-9.68-18.6-19.45-20.94-4.32,11.18-5.5,21.57-1.02,32.94-10.93-4.34-20.54-4.86-31.94-1.99,0,4.89,3.96,8.27,6.48,11.99l12.48,9.96c-8.8,2.67-16.73,9.4-20.96,17.46,9.44,5.68,21.58,5.74,31.94,2.52-2.42,9.69-5.79,21.63-.39,30.91,9.14-2.09,14.63-10.2,20.35-16.93.33,4.12,13.6,18.6,16.46,17.98,5.83-9.55,5.49-21.42,2.52-31.95,10.45,3.48,22.78,6.63,32.91.5-3.16-8.12-10.46-12.65-15.96-18.97,3.71-1.13,19.42-13.99,16.97-17.47ZM-2829.72,986.41l-8.01-4.48-6.95-10.51c-.48,7.26-6.32,13.49-13.33,14.97l-.66,1.98,8.98,4.51,5.98,10.47c1.34-6.84,6.65-12.91,13.37-14.9l.61-2.05ZM-2797.07,980.62c-5.69,1.67-5.55,13.05,2.23,14.34,10.93,1.82,11.82-18.47-2.23-14.34ZM-2421.5,992.38c-40.12,2.37-39.42,59.2,1.01,59.92l-1.01-59.92ZM-2758.85,1047.3c-11.44-56.15-91.67-56.13-102.8,0h102.8ZM-2676.71,1031.04c6.27,7.44,17.58-3.18,11.15-10.67-6.01-6.99-17.77,2.81-11.15,10.67ZM-2563.22,1073.27c-6.61-3.09-14.22-4.02-21.28-2.01l-.7,2.5,37.95,34.46,37.92-35.46c.81-1.95-3.98-2.09-4.77-2.19-5.36-.68-14.39.21-19.18,2.7.92-14.26-4.31-30.75-15.38-39.9-9.89,10.57-14.55,25.49-14.57,39.9ZM-2657.04,1100.23c36.93.12,36.55-53.02,0-53.92v53.92ZM-2841.69,1072.27c-26.79.54-14.11,39.02,7.98,22.97,1.24,2.06,10.46,11.43,12.64,12.82,13.66,8.72,27.93-.85,35.27-12.82,22.73,16.16,35.75-23.18,7.98-22.97,1.39-6.99,2.81-13.71,2-20.97-7.31-.02-14.65.04-21.96,0-7.64-.03-15.32-.03-22.96,0-7.64.03-15.32-.02-22.96,0-.74.74,1.46,18.32,2,20.97ZM-2662.03,1054.29c-36.81.92-36.73,53.54,0,53.92v-53.92ZM-2465.41,1058.29v48.43c13.31,8.57,28.26,5.3,37.9-7.02,2.25-2.88,4.42-4.44,1.4-7.34-4.4-4.2-13-8.86-18.35-13.59-6.35-5.62-11.59-12.97-17.43-18.51-1.09-1.03-1.74-2.33-3.52-1.97ZM-2711.94,1093.23c-2.99-2.9-7.38-3.78-10.38-7.08-2.31-2.54-3.42-5.99-5.09-8.9-1.99,4.75-5.31,9.39-9.52,12.45-1.95,1.42-4.97,1.14-5.95,3.52,8,.72,12.97,8.09,15.47,15,2.22-7.09,7.56-14.17,15.47-15ZM-2499.62,1080.45c-8.18,1.8-5.41,16.27,3.53,14.63,9.1-1.67,8.41-17.26-3.53-14.63ZM-2612.42,1083.46c-9.2,2.76-3.84,19.04,6.56,13.55,7.76-4.1,2.85-16.37-6.56-13.55ZM-2635.29,1130.48c-35.6,3.83-40.85,43.04-2.99,50.34,4.99.96,22.36,1.54,24.69,5.27,4.4,7.05-11.05,7.29-14.99,6.99-8.33-.63-14.4-4.75-21.83-7.81-1.01.19-13.98,13.11-14.67,14.27-2.7,4.5,6.06,8.44,9.83,10.24,20.06,9.57,60.26,11.13,68.38-14.89,5.47-17.53-4.53-29.16-21.06-33.45-6.53-1.7-22.87-2.15-27.08-4.86s-.72-5.14,2.85-5.99c9.37-2.23,19.91,1.7,28.37,5.4l14.62-15.29c-12.72-9.38-30.59-11.89-46.12-10.23ZM-2754.86,1132.18h-27.95v81.88h27.95v-81.88ZM-2512.32,1214.06h26.95l3.65-10.03h25.62c5.42,19.26,33.51,18.87,32.6-2.95-4.17,2.29-5.09-.38-6.85-3.62l-26.01-63.84c-1.89-2.15-20.58-2.19-22.53-.45l-33.42,80.89ZM-2793.78,1133.18h-66.87v80.88h27.95v-30.95h24.95v-19.97h-24.95v-6.99h38.93v-22.97ZM-2675.01,1133.18h-65.87v80.88h65.87v-23.96h-38.93v-6.99h24.45l1.5-1.5v-17.47h-25.95v-7.99h38.93v-22.97ZM-2503.34,1133.18h-76.85v22.97h24.95v57.91h25.95v-56.42l1.5-1.5h24.45v-22.97ZM-2597.16,1227.04h-25.95l-15.98,43.93c-2.25.41-1.59-.11-2.22-1.27-5.76-10.59-9.38-34.01-18.38-41.51-11.39-9.48-29.99-1.61-28.28,13.82,3.65-1.88,6.2-1.35,8.38,2.09l26.66,67.69,23.35-.87,32.43-83.88ZM-2478.63,1225.3c-30.31,3.86-39.14,39.27-10.42,49.86,6.98,2.57,32.65,3.78,35.15,7.78,4.94,7.92-13.41,7.36-16.99,7-7.56-.77-14.24-4.49-20.82-7.83l-17.57,17.22c18.02,18.58,71.19,22.85,82.29-4.39,8.84-21.7-5.01-34.54-25.22-38.66-5.51-1.13-21.12-1.48-24.72-4.23-.78-.59-1.59-1.36-1.4-2.43.78-4.42,13.08-3.92,16.45-3.64,6.85.56,12.22,3.71,18.71,4.89l14.69-15.3c-13.49-9.94-33.74-12.35-50.15-10.26ZM-2860.65,1274.97h23.46c.83,0,7.52-2.49,8.86-3.12,17.8-8.38,17.79-33.31,0-41.69-1.34-.63-8.03-3.12-8.86-3.12h-23.46v47.93ZM-2771.82,1227.04h-38.93v47.93h38.93v-11.98h-24.95v-6.99h15.97v-9.99h-15.97v-6.99h24.95v-11.98ZM-2763.84,1311.92h27.95l3.13-10.85c4.44.39,25.46-1.42,27.32.85.89,1.08,1.97,5,3.66,7.32,9.58,13.11,30.34,6.75,30.78-9.79-4.91.42-5.03.9-7.55-3.46l-27.89-67.96-22.01-1.06-35.39,84.95ZM-2517.31,1227.04h-68.87v84.88h68.87v-24.96h-40.92v-6.99h26.95v-19.97h-26.95v-7.99h40.92v-24.96ZM-2805.51,1306.74c-1.53-1.1-7.08-21.13-9.7-23.81-1.66-1.71-6-.99-8.38-.83l-11.12,29.81c2.37-.26,5.29.45,7.52.03,2.47-.46,2.06-2.77,3.16-3.04,1.24-.31,6.32-.23,7.83-.06,2.36.28,2.81,5.96,8.69,4.91,3.93-.7,3.31-3.47,4.73-6.34.12-.97-1.93-.09-2.73-.66ZM-2789.78,1289.96c7.18-3.29,11.83,5.08,16.91-3.58,1.04-4.66-15.41-4.81-18.35-4.36-9.36,1.44-11.98,13.79-2.58,17.43,1.12.43,15.16,1.71,11.99,4.47-7.29,1.53-17.01-6.58-17.51,5.03,7.65,6.05,27.28,6.57,28.44-5.64,1.01-10.56-8.98-9.95-16.14-11.65-.99-.24-3.01-.3-2.76-1.7ZM-2851.67,1282.96h-8.98v28.96h21.96v-7.99c-.89-.9-11.32,1.63-12.98-1.49v-19.47Z"/>
    <path class="st8" d="M-2663.03,729.77l26.45,93.87,27.45-93.87c.33,0,.67,0,1,0,32.92.01,65.89-.03,98.81,0-36.22,32.29-72.25,64.93-108.79,96.86-6.46,5.65-13.28,10.95-19.46,16.94l-19.46-16.94-103.8-96.86c32.59-.02,65.22,0,97.81,0Z"/>
    <path class="st2" d="M-2760.85,729.77l103.8,96.86c-1.28-.13-2.76.19-3.99,0-14.47-2.27-28.41-3.24-42.93-6.48-58.44-13.02-113.14-45.74-152.7-90.37,31.93-.03,63.89,0,95.82,0Z"/>
    <path class="st6" d="M-2693.97,935.47c-.04,23.62.05,47.28,0,70.9-.04,19.29.03,38.62,0,57.91-43.3-15.79-75.72-61.68-81.84-106.84-.94-6.96-1.24-13.94-1-20.97,25.38-.25,58.16,1.15,82.84-1Z"/>
    <path class="st2" d="M-2509.32,729.77c29.26.02,58.57-.02,87.83,0,.45,1.73-.72,2-1.49,3-15.53,20.25-53.05,46.82-75.69,59.08-38.91,21.06-72.94,28.81-116.45,34.78-.96.13-2.02-.09-2.99,0,36.54-31.93,72.57-64.57,108.79-96.86Z"/>
    <path class="st6" d="M-2478.63,1225.3c16.4-2.09,36.66.33,50.15,10.26l-14.69,15.3c-6.48-1.17-11.86-4.32-18.71-4.89-3.36-.28-15.66-.78-16.45,3.64-.19,1.06.62,1.83,1.4,2.43,3.6,2.74,19.21,3.1,24.72,4.23,20.2,4.12,34.05,16.96,25.22,38.66-11.1,27.24-64.26,22.97-82.29,4.39l17.57-17.22c6.58,3.34,13.27,7.06,20.82,7.83,3.58.36,21.93.92,16.99-7-2.5-4.01-28.17-5.21-35.15-7.78-28.71-10.59-19.88-46,10.42-49.86Z"/>
    <polygon class="st6" points="-2517.31 1227.04 -2517.31 1252 -2558.23 1252 -2558.23 1259.99 -2531.28 1259.99 -2531.28 1279.96 -2558.23 1279.96 -2558.23 1286.95 -2517.31 1286.95 -2517.31 1311.92 -2586.18 1311.92 -2586.18 1227.04 -2517.31 1227.04"/>
    <path class="st6" d="M-2492.36,986.39c-3.91,3.98-10.32,9.88-13.48,13.97-.77,1-1.93,1.27-1.49,2.99,6.6,2.25,12.08,2.8,18.96,3.01.92,8.68,4.93,18.76,8.8,26.64,2.61,5.31,11.68,17.09,12.73,21.25.78,3.11-1.49,3.15-4.06,3.12-43.07-.48-72.95-31.14-63.92-75.01,2.66-12.91,11.38-20.48,3.73-34.62-4.21-7.78-13.44-12.65-22.16-13.29l8.44-2.03c14.57,1,29.46-3.39,41.96,6.03,13.96,10.52,8.64,23.95,9.44,38.48.17,3.17,1.53,6.2,1.04,9.45Z"/>
    <path class="st6" d="M-2635.29,1130.48c15.52-1.67,33.39.84,46.12,10.23l-14.62,15.29c-8.46-3.7-19-7.63-28.37-5.4-3.58.85-7.04,3.29-2.85,5.99s20.54,3.16,27.08,4.86c16.53,4.29,26.52,15.92,21.06,33.45-8.12,26.02-48.32,24.46-68.38,14.89-3.77-1.8-12.53-5.74-9.83-10.24.7-1.16,13.67-14.08,14.67-14.27,7.43,3.06,13.49,7.18,21.83,7.81,3.94.3,19.39.06,14.99-6.99-2.33-3.73-19.7-4.31-24.69-5.27-37.85-7.3-32.6-46.51,2.99-50.34Z"/>
    <path class="st2" d="M-2550.26,983.42c2.45,3.47-13.26,16.34-16.97,17.47,5.49,6.32,12.8,10.84,15.96,18.97-10.13,6.13-22.46,2.98-32.91-.5,2.96,10.53,3.31,22.4-2.52,31.95-2.86.63-16.13-13.85-16.46-17.98-5.72,6.73-11.21,14.84-20.35,16.93-5.4-9.28-2.03-21.22.39-30.91-10.36,3.21-22.5,3.16-31.94-2.52,4.23-8.06,12.16-14.79,20.96-17.46l-12.48-9.96c-2.52-3.72-6.48-7.1-6.48-11.99,11.4-2.87,21.01-2.35,31.94,1.99-4.48-11.38-3.3-21.76,1.02-32.94,9.77,2.35,14.56,12.95,19.45,20.94,4.85-7.74,11.38-14.4,19.94-17.95,4.33.94,2.87,28.2-1.45,32.46,11.13-3.72,21.14-2.73,31.91,1.5ZM-2606.41,977.65c-2.28.38-5.72,1.99-7.66,3.32-21.49,14.71-3.98,47.2,20.26,37.25,22.84-9.38,12.83-44.81-12.61-40.56Z"/>
    <polygon class="st6" points="-2675.01 1133.18 -2675.01 1156.15 -2713.93 1156.15 -2713.93 1164.13 -2687.98 1164.13 -2687.98 1181.61 -2689.48 1183.11 -2713.93 1183.11 -2713.93 1190.1 -2675.01 1190.1 -2675.01 1214.06 -2740.88 1214.06 -2740.88 1133.18 -2675.01 1133.18"/>
    <path class="st6" d="M-2763.84,1311.92l35.39-84.95,22.01,1.06,27.89,67.96c2.52,4.36,2.64,3.88,7.55,3.46-.44,16.54-21.2,22.9-30.78,9.79-1.7-2.32-2.77-6.24-3.66-7.32-1.86-2.27-22.87-.46-27.32-.85l-3.13,10.85h-27.95ZM-2710.94,1287.95c-2.08-8.44-4.67-17.2-8.48-24.94-1.32,0-8.02,21.79-8.48,24.94h16.97Z"/>
    <path class="st6" d="M-2657.04,826.63l19.46,16.94c6.18-5.98,13-11.29,19.46-16.94.97-.09,2.04.13,2.99,0l20.79,51.27c-21.23,25.87-64.39,23.15-87.56,1l20.86-52.27c1.23.19,2.71-.13,3.99,0Z"/>
    <path class="st6" d="M-2512.32,1214.06l33.42-80.89c1.95-1.74,20.64-1.7,22.53.45l26.01,63.84c1.76,3.24,2.68,5.91,6.85,3.62.92,21.82-27.18,22.21-32.6,2.96h-25.62s-3.65,10.02-3.65,10.02h-26.95ZM-2461.42,1190.1c-1.02-8.24-5.43-15.9-7.49-23.97l-8.48,23.97h15.97Z"/>
    <path class="st6" d="M-2597.16,1227.04l-32.43,83.88-23.35.87-26.66-67.69c-2.18-3.44-4.73-3.97-8.38-2.09-1.71-15.44,16.89-23.31,28.28-13.82,9.01,7.5,12.63,30.92,18.38,41.51.63,1.16-.03,1.68,2.22,1.27l15.98-43.93h25.95Z"/>
    <polygon class="st6" points="-2793.78 1133.18 -2793.78 1156.15 -2832.71 1156.15 -2832.71 1163.13 -2807.76 1163.13 -2807.76 1183.11 -2832.71 1183.11 -2832.71 1214.06 -2860.65 1214.06 -2860.65 1133.18 -2793.78 1133.18"/>
    <path class="st2" d="M-2632.09,923.49c3.37,3.83,5.83,8.38,7.98,12.98l-69.87,69.9c.05-23.62-.04-47.28,0-70.9,7.66-.67,7.16-5.22,11.47-10,13.22-14.68,36.78-17.47,50.42-1.98Z"/>
    <path class="st2" d="M-2758.85,1047.3h-102.8c11.14-56.13,91.36-56.15,102.8,0Z"/>
    <polygon class="st6" points="-2503.34 1133.18 -2503.34 1156.15 -2527.79 1156.15 -2529.29 1157.64 -2529.29 1214.06 -2555.24 1214.06 -2555.24 1156.15 -2580.19 1156.15 -2580.19 1133.18 -2503.34 1133.18"/>
    <path class="st2" d="M-2492.36,986.39c21.5-21.87,44.08-42.81,65.39-64.9,1.92-.33,1.23.23,1.7,1.24,1.02,2.19,2.23,7.99,2.5,10.51,4.44,41.58-23.25,74.4-65.6,73.12-6.88-.21-12.36-.76-18.96-3.01-.44-1.72.71-1.99,1.49-2.99,3.16-4.09,9.57-9.99,13.48-13.97Z"/>
    <path class="st8" d="M-2430.48,910.51c-2.96,1-2.7-1.54-3.75-1.92-3.62-1.3-22.59-5.47-23.73-7.04s-.19-1.54.51-2.55c3.84-5.47,10.72-10.3,13.99-16.45l-23.95,3.98,3.98-22.96c-3.58.76-16.66,15.65-18.94,13.98l-7.01-21.97c-1.41.11-1.57,1.47-2.02,2.46-1.38,3-5.95,19.76-6.96,20.51l-18.94-15.97,3.98,23.96-22.95-3.98,14.96,18.95c-7.92,2.73-17.48,4.23-25.19,7.08-.84.31-1.49,3.63-3.76,1.39.72-28.96,20.07-53.49,48.71-59.09,37.29-7.28,71.51,21.96,71.06,59.62Z"/>
    <rect class="st6" x="-2782.8" y="1132.18" width="27.95" height="81.88"/>
    <path class="st6" d="M-2820.73,1051.3c-.16,6.45,5.51,14.83,4.99,20.97-.65,7.81-13.55,20.05,6.49,20.05,20.37,0,7.1-12.71,6.49-20.05-.48-5.73,4.04-15.06,4.99-20.97,7.31.03,14.65-.02,21.96,0,.8,7.26-.61,13.98-2,20.97-.33,1.69-.55,3.31-1,4.99-1.18,4.4-3.15,8.5-3.99,12.98l-1.88,1.62c-.86.84-.7,2.69-1.12,3.37-7.34,11.97-21.61,21.54-35.27,12.82-2.18-1.39-11.4-10.76-12.64-12.82-.14-.24-1.39-3.67-2-4.99-1.36-2.96-4.22-10.06-4.99-12.98-.33-1.26-.69-3.47-1-4.99-.54-2.65-2.75-20.23-2-20.97,7.64-.02,15.32.04,22.96,0ZM-2827.98,1065.49c-2.17.2-9.33,3.74-8.72,6.24,5.21,5.75,15.9,7.12,17.87-1.77-.63-2.44-6.77-4.7-9.14-4.47ZM-2791.03,1065.51c-15.17.89-7.01,14.5,4.81,9.82,9.15-3.62,1.43-10.18-4.81-9.82Z"/>
    <path class="st2" d="M-2776.81,936.47c-.25,7.03.06,14.01,1,20.97l-44.7,10.78c-18.72-.69-34.26-13.82-40.15-31.24,27.9-1.14,55.93-.24,83.86-.51Z"/>
    <path class="st6" d="M-2860.65,1274.97v-47.93h23.46c.83,0,7.52,2.49,8.86,3.12,17.79,8.37,17.8,33.31,0,41.69-1.34.63-8.03,3.12-8.86,3.12h-23.46ZM-2847.68,1263.99c25.36,2.91,25.4-29.24,0-25.96v25.96Z"/>
    <polygon class="st6" points="-2771.82 1227.04 -2771.82 1239.02 -2796.78 1239.02 -2796.78 1246.01 -2780.81 1246.01 -2780.81 1256 -2796.78 1256 -2796.78 1262.99 -2771.82 1262.99 -2771.82 1274.97 -2810.75 1274.97 -2810.75 1227.04 -2771.82 1227.04"/>
    <path class="st8" d="M-2421.5,992.38l1.01,59.92c-40.43-.72-41.13-57.55-1.01-59.92Z"/>
    <path class="st2" d="M-2424.49,801.66l1,57.92c-38.57-1.24-39.57-55.32-1-57.92Z"/>
    <path class="st6" d="M-2630.09,700.81c11.99,2.02,22.8,16.9,21.96,28.96-.33,0-.67,0-1,0-17.95,0-35.95,0-53.9,0-1.88-11.64,9.91-26.9,20.96-28.96,2.01-.37,9.9-.35,11.98,0Z"/>
    <path class="st2" d="M-2465.41,1058.29c1.78-.35,2.43.94,3.52,1.97,5.84,5.54,11.08,12.89,17.43,18.51,5.35,4.73,13.95,9.39,18.35,13.59,3.03,2.89.86,4.46-1.4,7.34-9.64,12.32-24.59,15.59-37.9,7.02v-48.43Z"/>
    <path class="st6" d="M-2797.17,834.66l20.4,21.37c4.27,19.06-19.64,30.89-34.46,18.5-3.91-3.27-9.36-12.74-6.57-17.5l20.62-22.37Z"/>
    <path class="st6" d="M-2836.02,860.69l2.79.91c2.35,4.88,19.17,19.47,19.41,23.37.63,10.01-11.96,20.26-21.49,20.43-9.86.18-22.92-10.09-22.28-20.43.22-3.53,18.49-20.05,21.57-24.28Z"/>
    <path class="st6" d="M-2835.07,806.73c1.32-.23,5.28,4.23,6.38,5.39,3.07,3.25,12.17,12.82,14,15.94,6.14,10.52-10,23.66-20.52,23.6-9.35-.06-22.5-10.7-21.46-20.53.42-3.97,18.23-19.99,21.6-24.41Z"/>
    <path class="st6" d="M-2657.04,1100.23v-53.92c36.55.9,36.93,54.04,0,53.92Z"/>
    <path class="st8" d="M-2662.03,1054.29v53.92c-36.73-.38-36.81-53,0-53.92Z"/>
    <path class="st8" d="M-2533.28,1073.27c-4.1,2.14-13.74,13.11-13.97,17.97-3.34-7.83-8.06-14.28-15.97-17.97.02-14.41,4.68-29.33,14.57-39.9,11.06,9.16,16.3,25.65,15.38,39.9Z"/>
    <path class="st2" d="M-2466.41,910.51h-47.91c-.77-33.39,49.1-33.54,47.91,0Z"/>
    <path class="st8" d="M-2756.21,879.91c13.15,13.06,3.71,35.77-14.61,35.59l-.85-40.29,1.42-1.55c5.02,1.07,10.29,2.52,14.04,6.25Z"/>
    <path class="st2" d="M-2774.82,882.55v40.94c-27.73-.08-27.37-40.7,0-40.94Z"/>
    <path class="st6" d="M-2789.78,1289.96c-.24,1.4,1.77,1.46,2.76,1.7,7.16,1.7,17.15,1.08,16.14,11.65-1.17,12.21-20.79,11.69-28.44,5.64.51-11.6,10.22-3.5,17.51-5.03,3.17-2.76-10.87-4.04-11.99-4.47-9.4-3.64-6.78-15.99,2.58-17.43,2.94-.45,19.4-.3,18.35,4.36-5.08,8.65-9.73.28-16.91,3.58Z"/>
    <path class="st2" d="M-2563.22,1073.27c7.91,3.69,12.63,10.14,15.97,17.97-.24,4.82,2.76,11.52,0,16.98l-37.95-34.46.7-2.5c7.07-2.01,14.67-1.08,21.28,2.01Z"/>
    <path class="st6" d="M-2533.28,1073.27c4.79-2.49,13.81-3.39,19.18-2.7.79.1,5.58.24,4.77,2.19l-37.92,35.46c2.76-5.46-.24-12.15,0-16.98s9.87-15.84,13.97-17.97Z"/>
    <path class="st6" d="M-2805.51,1306.74c.79.57,2.84-.3,2.73.66-1.42,2.88-.8,5.64-4.73,6.34-5.89,1.05-6.33-4.63-8.69-4.91-1.51-.18-6.59-.26-7.83.06-1.1.28-.68,2.58-3.16,3.04-2.23.42-5.16-.29-7.52-.03l11.12-29.81c2.37-.16,6.71-.88,8.38.83,2.62,2.69,8.18,22.71,9.7,23.81ZM-2818.74,1295.94c-2.05-2.12-4.25,6.7-3.98,7.98h5.98s-2-7.98-2-7.98Z"/>
    <path class="st8" d="M-2703.95,898.52c-4.21,2.05-8.52,6.05-8.98,10.98-2.6-4.31-6.07-9.97-10.98-11.98,1.2-8.68,2.46-19.78,10.35-24.89,7.17,6.23,10.26,16.61,9.62,25.89Z"/>
    <path class="st8" d="M-2797.77,1051.3c-.95,5.91-5.47,15.24-4.99,20.97-5.14,2.41-7.84,2.41-12.98,0,.51-6.14-5.15-14.51-4.99-20.97,7.64-.03,15.32-.03,22.96,0Z"/>
    <path class="st6" d="M-2851.67,1282.96v19.47c1.65,3.12,12.08.6,12.98,1.49v7.99h-21.96v-28.96h8.98Z"/>
    <path class="st8" d="M-2422.49,775.72l-.65,1.98c-6.06,1.25-11.88,8.01-13.34,13.98-2.39-.98-2.11-4.01-3.52-5.95-2.56-3.52-7.03-7.21-11.43-8.04l.61-2.05c6.63-2.1,12.31-7.84,13.37-14.9l4.95,8.5c2.75,3,5.81,5.78,10,6.48Z"/>
    <path class="st8" d="M-2711.94,1093.23c-7.91.83-13.25,7.9-15.47,15-2.5-6.91-7.47-14.28-15.47-15,.97-2.39,3.99-2.11,5.95-3.52,4.21-3.06,7.53-7.7,9.52-12.45,1.67,2.91,2.78,6.35,5.09,8.9,3,3.3,7.39,4.18,10.38,7.08Z"/>
    <path class="st8" d="M-2747.87,822.65c-3.07,3.01-7.3,3.62-10.51,6.94-2.12,2.19-4.42,5.92-4.47,9.02-3.88-5.69-5.95-9.69-12.1-13.4-1.11-.67-4.9-.54-2.24-2.64,1.04-.83,3.92-1.72,5.69-3.11,4.06-3.17,6.39-6.73,7.67-11.8l6.07,10.38,9.88,4.6Z"/>
    <path class="st6" d="M-2484.38,820.65l-10.38,6.08-5.09,9.9c-2.76-6.92-7.47-14.08-15.47-15,3.31-2.96,6.81-3.9,10-7.45,2.49-2.77,3.52-5.5,5.47-8.51,2.05,7.42,7.81,13.22,15.46,14.99Z"/>
    <path class="st6" d="M-2832.71,775.71c-6.38,4.75-13.66,8.09-14.98,16.96l-5.94-10.51-9.02-4.47.65-1.99c6.8-1.44,12.51-8.09,13.33-14.97l7.95,11.5,8,3.48Z"/>
    <path class="st8" d="M-2581.2,893.53c-.15,3.92,2.97,6.49,5.1,9.39l9.87,5.58c-4.93,1.27-9.32,4.02-12.4,8.07-1.72,2.26-1.74,6.48-4.54,5.92l-4.48-8.01-10.5-6.95c7.07,0,13.55-6.6,14.97-13.33l1.98-.66Z"/>
    <path class="st8" d="M-2829.72,986.41l-.61,2.05c-6.72,1.99-12.04,8.06-13.37,14.9l-5.98-10.47-8.98-4.51.66-1.98c7.01-1.48,12.85-7.72,13.33-14.97l6.95,10.51,8.01,4.48Z"/>
    <path class="st2" d="M-2723.92,897.52c4.91,2.01,8.38,7.67,10.98,11.98-.34,3.65,1.61,7.14,0,10.98l-.99.54-23.96-23.02c-.42-2.27.99-1.37,2.47-1.48,3.38-.26,8.36-.29,11.5,1Z"/>
    <path class="st6" d="M-2703.95,898.52c4.63-2.25,7.29-2.39,12.49-1.99,1.48.11,2.89-.79,2.47,1.48l-23.95,22.48c1.61-3.84-.34-7.34,0-10.98.46-4.93,4.78-8.94,8.98-10.98Z"/>
    <path class="st8" d="M-2785.8,1095.23c.42-.68.26-2.53,1.12-3.37l1.88-1.62c14.8,13.85,24.37-14.59,3.99-12.98.45-1.68.66-3.3,1-4.99,27.76-.22,14.75,39.13-7.98,22.97Z"/>
    <path class="st8" d="M-2841.69,1072.27c.31,1.52.67,3.74,1,4.99-20.02-1.01-9.81,26.78,4.99,12.98.61,1.32,1.85,4.75,2,4.99-22.1,16.05-34.77-22.42-7.98-22.97Z"/>
    <path class="st2" d="M-2811.04,909.81c7.13,5.74-2.19,18.22-10.22,11.71s2.35-18.06,10.22-11.71Z"/>
    <path class="st8" d="M-2612.42,1083.46c9.41-2.82,14.32,9.46,6.56,13.55-10.4,5.48-15.76-10.79-6.56-13.55Z"/>
    <path class="st8" d="M-2575.55,840.9c8.83-.48,10.75,13.12,2.81,14.66-12.88,2.49-12.68-14.12-2.81-14.66Z"/>
    <path class="st8" d="M-2676.71,1031.04c-6.63-7.86,5.14-17.65,11.15-10.67,6.44,7.49-4.87,18.11-11.15,10.67Z"/>
    <path class="st8" d="M-2703.2,840.8c8.31-.73,11.37,13.17,2.7,14.78-12.18,2.26-12.29-13.94-2.7-14.78Z"/>
    <path class="st2" d="M-2499.62,1080.45c11.94-2.63,12.63,12.96,3.53,14.63-8.94,1.64-11.71-12.83-3.53-14.63Z"/>
    <path class="st8" d="M-2797.07,980.62c14.05-4.13,13.16,16.17,2.23,14.34-7.78-1.3-7.93-12.67-2.23-14.34Z"/>
    <path class="st6" d="M-2632.09,923.49l27.94,11.99c.24,1.74-2.27.94-3.48.99-5.48.2-11.01-.15-16.48,0-2.15-4.6-4.61-9.15-7.98-12.98Z"/>
    <path class="st2" d="M-2630.09,700.81c-2.07-.35-9.96-.37-11.98,0l5-17.97c4.01,4.68,5.62,12.08,6.98,17.97Z"/>
    <path class="st9" d="M-2606.41,977.65c25.44-4.25,35.45,31.19,12.61,40.56-24.25,9.95-41.75-22.54-20.26-37.25,1.93-1.32,5.37-2.94,7.66-3.32ZM-2606.43,987.61c-12.41,2.84-10.16,27.18,8.3,22.28,12.3-3.27,10.25-26.52-8.3-22.28Z"/>
    <path class="st9" d="M-2710.94,1287.95h-16.97c.47-3.16,7.16-24.94,8.48-24.94,3.82,7.75,6.4,16.5,8.48,24.94Z"/>
    <path class="st9" d="M-2461.42,1190.1h-15.97l8.48-23.97c2.06,8.08,6.46,15.74,7.49,23.97Z"/>
    <path class="st2" d="M-2802.77,1072.27c.61,7.34,13.88,20.05-6.49,20.05-20.04,0-7.14-12.24-6.49-20.05,5.14,2.41,7.84,2.41,12.98,0Z"/>
    <path class="st9" d="M-2840.69,1077.26c.77,2.92,3.63,10.02,4.99,12.98-14.8,13.8-25.01-13.99-4.99-12.98Z"/>
    <path class="st9" d="M-2782.8,1090.24c.85-4.48,2.82-8.58,3.99-12.98,20.38-1.61,10.81,26.83-3.99,12.98Z"/>
    <path class="st9" d="M-2791.03,1065.51c6.24-.36,13.96,6.19,4.81,9.82-11.82,4.68-19.98-8.93-4.81-9.82Z"/>
    <path class="st9" d="M-2827.98,1065.49c2.38-.22,8.52,2.03,9.14,4.47-1.97,8.89-12.66,7.52-17.87,1.77-.61-2.5,6.55-6.04,8.72-6.24Z"/>
    <path class="st9" d="M-2847.68,1263.99v-25.96c25.4-3.28,25.36,28.87,0,25.96Z"/>
    <path class="st9" d="M-2818.74,1295.94l2,7.98h-5.98c-.27-1.29,1.93-10.1,3.98-7.98Z"/>
    <path class="st8" d="M-2606.43,987.61c18.56-4.24,20.61,19.01,8.3,22.28-18.46,4.91-20.72-19.44-8.3-22.28Z"/>
  </g>
  <g id="RXw9b2">
    <g>
      <path class="st6" d="M-2179.77,4.6l83.18,89.94-41.49,89.45h35.85c13.98,0,73.34-73.47,88.44-85.26l2.49-4.44-2.49-4.44c-25.02-21.74-47.59-55.02-72.58-75.7-3.78-3.12-13.01-9.56-17.53-9.56h-75.86Z"/>
      <path class="st2" d="M-2020.54,22.01c-8.25,1.43-17.03,10.28-22.48,16.55l42.72,44.29c4.16.76,39.56-43.11,48.85-47.88,18.44-9.46,48.38,1.88,61.35-8.97,1.32-1.11,3.06.08,2.11-3.99h-132.55Z"/>
    </g>
  </g>
  <g>
    <path class="st2" d="M-3048.41-1.07l80.96,93.5-41.6,39.43c-13.85-11.69-26.13-25.8-39.36-38.43V-1.07Z"/>
    <polygon class="st6" points="-3048.41 107.93 -2988.37 168.39 -3048.41 198.93 -3048.41 107.93"/>
    <path class="st6" d="M-2878.41,79.94c.22,1.91-1.95.65-3.01.51-20.86-2.72-41.62-6.88-62.37-10.28-3.71,1.91-13.52,15.51-16.91,14.65-2.63-.67-20.99-25.2-24.7-28.88l36.09-13.51,70.9,37.51Z"/>
    <polygon class="st2" points="-3057.41 83.93 -3124.41 17.94 -3057.41 45.43 -3057.41 83.93"/>
  </g>
  <g id="RXw9b21" data-name="RXw9b2">
    <g>
      <path class="st6" d="M-2811.71,4.81l77.41,83.7-38.62,83.25h33.36c13.01,0,68.25-68.37,82.31-79.34l2.31-4.13-2.31-4.13c-23.28-20.23-44.29-51.2-67.55-70.45-3.52-2.91-12.11-8.9-16.31-8.9h-70.6Z"/>
      <path class="st2" d="M-2663.52,21.02c-7.67,1.33-15.85,9.57-20.92,15.4l39.75,41.21c3.87.71,36.82-40.12,45.46-44.56,17.16-8.8,45.03,1.75,57.1-8.34,1.23-1.03,2.85.07,1.96-3.71h-123.36Z"/>
    </g>
  </g>
  <text class="st1" transform="translate(-1625.53 172.09)"><tspan class="st4" x="0" y="0">ari</tspan><tspan class="st7" x="149.97" y="0">Pay</tspan></text>
  <g id="RXw9b22" data-name="RXw9b2">
    <g>
      <path class="st6" d="M-1819.18-5.72l91.48,98.92-45.64,98.38h39.43c15.38,0,80.66-80.81,97.27-93.77l2.74-4.88-2.74-4.88c-27.52-23.91-52.34-60.52-79.83-83.26-4.15-3.44-14.31-10.51-19.28-10.51h-83.44Z"/>
      <path class="st2" d="M-1644.05,13.43c-9.07,1.57-18.73,11.3-24.72,18.2l46.98,48.71c4.58.84,43.51-47.42,53.73-52.66,20.28-10.4,53.21,2.07,67.48-9.86,1.46-1.22,3.37.08,2.32-4.38h-145.79Z"/>
    </g>
  </g>
  <text class="st5" transform="translate(-1004.36 155.26)"><tspan class="st4" x="0" y="0">ari</tspan><tspan class="st7" x="126.89" y="0">CRM</tspan></text>
  <g id="RXw9b23" data-name="RXw9b2">
    <g>
      <path class="st6" d="M-1156.75,4.81l77.41,83.7-38.62,83.25h33.36c13.01,0,68.25-68.37,82.31-79.34l2.31-4.13-2.31-4.13c-23.28-20.23-44.29-51.2-67.55-70.45-3.52-2.91-12.11-8.9-16.31-8.9h-70.6Z"/>
      <path class="st2" d="M-1008.57,21.02c-7.67,1.33-15.85,9.57-20.92,15.4l39.75,41.21c3.87.71,36.82-40.12,45.46-44.56,17.16-8.8,45.03,1.75,57.1-8.34,1.23-1.03,2.85.07,1.96-3.71h-123.36Z"/>
    </g>
  </g>
  <text class="st3" transform="translate(173.47 159.26)"><tspan x="0" y="0">ari</tspan></text>
  <g id="RXw9b24" data-name="RXw9b2">
    <g>
      <path class="st6" d="M6.9,47l49.35,53.35-24.62,53.07h21.27c8.3,0,43.51-43.59,52.47-50.58l1.48-2.63-1.48-2.63c-14.84-12.9-28.23-32.64-43.06-44.91-2.24-1.85-7.72-5.67-10.4-5.67H6.9Z"/>
      <path class="st2" d="M101.37,57.33c-4.89.85-10.1,6.1-13.34,9.82l25.34,26.27c2.47.45,23.47-25.58,28.98-28.4,10.94-5.61,28.7,1.11,36.4-5.32.79-.66,1.82.05,1.25-2.36h-78.64Z"/>
    </g>
  </g>
  <text class="st0" transform="translate(1036.3 157.09)"><tspan class="st4" x="0" y="0">ari</tspan><tspan class="st7" x="182.77" y="0">CRM</tspan></text>
  <g id="RXw9b25" data-name="RXw9b2">
    <g>
      <path class="st6" d="M-2170.1,667.47l83.18,89.94-41.49,89.45h35.85c13.98,0,73.34-73.47,88.44-85.26l2.49-4.44-2.49-4.44c-25.02-21.74-47.59-55.02-72.58-75.7-3.78-3.12-13.01-9.56-17.53-9.56h-75.86Z"/>
      <path class="st2" d="M-2010.87,684.88c-8.25,1.43-17.03,10.28-22.48,16.55l42.72,44.29c4.16.76,39.56-43.11,48.85-47.88,18.44-9.46,48.38,1.88,61.35-8.97,1.32-1.11,3.06.08,2.11-3.99h-132.55Z"/>
    </g>
  </g>
</svg>